<svg width="32" height="32" viewBox="0 0 32 32" fill="none" xmlns="http://www.w3.org/2000/svg">
<path fill-rule="evenodd" clip-rule="evenodd" d="M15.712 2.66667C12.8837 2.66667 10.058 3.74605 7.90147 5.90225C3.58851 10.2147 3.58851 17.2089 7.90147 21.5238L15.712 29.3333V23.7569C14.5325 22.6776 12.1683 19.9599 10.817 18.6087C8.11174 15.9039 8.11174 11.5248 10.817 8.81992C12.1221 7.51492 13.8658 6.79191 15.712 6.79191H22.6353V10.8813C22.3763 15.3808 22.5712 16.2807 20.9711 18.6062C19.8865 20.1804 17.2556 22.675 16.0761 23.7544V29.3308L23.8866 21.5213C26.0252 19.2881 26.5508 17.4627 26.7559 11.0402H26.7611V2.66667H15.7146H15.712Z" fill="#214CBC"/>
</svg>
